0
SECTION
2
HEADER
9
$ACADVER
1
AC1009
9
$INSUNITS
70
4
9
$LIMMIN
10
-60.0
20
-110.0
9
$LIMMAX
10
180.0
20
110.0
9
$EXTMIN
10
-45.0
20
-90.0
30
0.0
9
$EXTMAX
10
165.0
20
90.0
30
0.0
0
ENDSEC
0
SECTION
2
TABLES
0
TABLE
2
LTYPE
70
1
0
LTYPE
2
CONTINUOUS
70
0
3
Solid line
72
65
73
0
40
0.0
0
ENDTAB
0
TABLE
2
LAYER
70
4
0
LAYER
2
OUTLINE
70
0
62
7
6
CONTINUOUS
0
LAYER
2
HOLES
70
0
62
7
6
CONTINUOUS
0
LAYER
2
CENTER
70
0
62
8
6
CONTINUOUS
0
LAYER
2
TEXT
70
0
62
7
6
CONTINUOUS
0
ENDTAB
0
ENDSEC
0
SECTION
2
BLOCKS
0
ENDSEC
0
SECTION
2
ENTITIES
0
LINE
8
OUTLINE
10
-30.000
20
-75.000
30
0.0
11
-30.000
21
75.000
31
0.0
0
LINE
8
OUTLINE
10
-30.000
20
75.000
30
0.0
11
55.000
21
75.000
31
0.0
0
LINE
8
OUTLINE
10
55.000
20
75.000
30
0.0
11
78.000
21
52.000
31
0.0
0
LINE
8
OUTLINE
10
78.000
20
52.000
30
0.0
11
125.000
21
52.000
31
0.0
0
LINE
8
OUTLINE
10
125.000
20
52.000
30
0.0
11
150.000
21
27.000
31
0.0
0
LINE
8
OUTLINE
10
150.000
20
27.000
30
0.0
11
150.000
21
-27.000
31
0.0
0
LINE
8
OUTLINE
10
150.000
20
-27.000
30
0.0
11
125.000
21
-52.000
31
0.0
0
LINE
8
OUTLINE
10
125.000
20
-52.000
30
0.0
11
78.000
21
-52.000
31
0.0
0
LINE
8
OUTLINE
10
78.000
20
-52.000
30
0.0
11
55.000
21
-75.000
31
0.0
0
LINE
8
OUTLINE
10
55.000
20
-75.000
30
0.0
11
-30.000
21
-75.000
31
0.0
0
LINE
8
CENTER
10
-45.000
20
0.000
30
0.0
11
165.000
21
0.000
31
0.0
0
CIRCLE
8
HOLES
10
14.000
20
-41.500
30
0.0
40
1.600
0
CIRCLE
8
HOLES
10
76.000
20
-41.500
30
0.0
40
1.600
0
CIRCLE
8
HOLES
10
14.000
20
41.500
30
0.0
40
1.600
0
CIRCLE
8
HOLES
10
76.000
20
41.500
30
0.0
40
1.600
0
CIRCLE
8
HOLES
10
120.000
20
-15.000
30
0.0
40
1.600
0
CIRCLE
8
HOLES
10
120.000
20
15.000
30
0.0
40
1.600
0
CIRCLE
8
HOLES
10
135.000
20
-40.000
30
0.0
40
1.600
0
CIRCLE
8
HOLES
10
135.000
20
40.000
30
0.0
40
1.600
0
TEXT
8
TEXT
10
-28.000
20
84.000
30
0.0
40
5.000
1
REAR  (-30)
0
TEXT
8
TEXT
10
5.000
20
84.000
30
0.0
40
5.000
1
DRIVE AXLE  x=0
0
TEXT
8
TEXT
10
15.000
20
62.000
30
0.0
40
5.000
1
PCB 90x70 rot (62 x 83)
0
TEXT
8
TEXT
10
95.000
20
74.000
30
0.0
40
5.000
1
CASTER  x=120  (under plate)
0
TEXT
8
TEXT
10
92.000
20
-88.000
30
0.0
40
5.000
1
SENSOR 8CH  x=135  (on top, view down)
0
TEXT
8
TEXT
10
-28.000
20
-88.000
30
0.0
40
5.000
1
DRAFT v2  2026-09-20   mm
0
ENDSEC
0
EOF
